<svg width="1920" height="36" viewBox="0 0 1920 36" fill="none" xmlns="http://www.w3.org/2000/svg">
<g clip-path="url(#clip0_10603_630552)">
<rect width="1920" height="36" fill="#333333"/>
<g opacity="0.2">
<path opacity="0.69" d="M1889.95 20.1287C1890.17 21.4672 1891.29 22.3596 1892.41 22.1365C1893.75 21.9134 1894.64 20.798 1894.42 19.6826C1894.19 18.344 1893.08 17.4517 1891.96 17.6748C1890.84 17.8979 1889.95 19.0133 1889.95 20.1287Z" fill="white"/>
<path opacity="0.35" d="M1460.84 28.8281C1460.4 28.8281 1460.17 29.2743 1460.17 29.4974C1460.17 29.7205 1460.62 30.1666 1460.84 30.1666C1461.29 30.1666 1461.51 29.7205 1461.51 29.4974C1461.51 29.0512 1461.29 28.8281 1460.84 28.8281Z" fill="white"/>
<path opacity="0.54" d="M1503.95 19.0127C1503.28 19.0127 1502.84 19.6819 1502.84 20.3512C1502.84 21.0204 1503.51 21.4666 1504.18 21.4666C1504.85 21.4666 1505.29 20.7974 1505.29 20.1281C1505.07 19.4588 1504.4 19.0127 1503.95 19.0127Z" fill="white"/>
<path opacity="0.51" d="M1487.42 8.30475C1487.42 7.41241 1486.53 6.74316 1485.64 6.74316C1484.74 6.74316 1484.07 7.6355 1484.07 8.52784C1484.07 9.42017 1484.97 10.0894 1485.86 10.0894C1486.75 10.0894 1487.42 9.19709 1487.42 8.30475Z" fill="white"/>
<path opacity="0.53" d="M1504.62 -2.40339C1504.4 -3.74189 1503.28 -4.63423 1502.17 -4.41115C1500.83 -4.18806 1499.93 -3.07265 1500.16 -1.95723C1500.38 -0.618722 1501.5 0.273619 1502.61 0.0505347C1503.95 -0.17255 1504.85 -1.28796 1504.62 -2.40339Z" fill="white"/>
<path opacity="0.57" d="M1868.06 36.6362C1868.06 37.5286 1868.95 38.1978 1869.85 38.1978C1870.74 38.1978 1871.41 37.3055 1871.41 36.4131C1871.41 35.5208 1870.52 34.8516 1869.62 34.8516C1868.73 34.8516 1867.83 35.7439 1868.06 36.6362Z" fill="white"/>
<path opacity="0.41" d="M1832.32 24.5888C1832.54 25.9273 1833.66 27.0427 1835.22 26.8197C1836.56 26.5966 1837.68 25.4811 1837.46 23.9196C1837.23 22.581 1836.12 21.4656 1834.55 21.6887C1833.21 21.9118 1832.32 23.0272 1832.32 24.5888Z" fill="white"/>
<path opacity="0.7" d="M1830.53 14.5505C1830.76 14.5505 1830.98 14.3275 1830.98 14.1044C1830.98 13.8813 1830.76 13.6582 1830.53 13.6582C1830.31 13.6582 1830.09 13.8813 1830.09 14.1044C1830.09 14.5506 1830.31 14.5505 1830.53 14.5505Z" fill="white"/>
<path opacity="0.4" d="M1870.07 3.17347C1870.29 4.28889 1871.19 5.18123 1872.3 4.95814C1873.42 4.73506 1874.31 3.84271 1874.09 2.72729C1873.87 1.61187 1872.97 0.719532 1871.86 0.942616C1870.74 0.942616 1869.85 2.05805 1870.07 3.17347Z" fill="white"/>
<path opacity="0.66" d="M1555.56 36.1897C1555.33 34.405 1553.77 33.2896 1552.2 33.5127C1550.42 33.7357 1549.3 35.2973 1549.52 36.8589C1549.75 38.6436 1551.31 39.759 1552.88 39.5359C1554.44 39.5359 1555.78 37.9743 1555.56 36.1897Z" fill="white"/>
<path opacity="0.69" d="M1554.44 23.6975C1554.21 23.6975 1553.77 23.9206 1553.99 24.3668C1554.21 24.8129 1554.21 25.036 1554.66 24.8129C1554.88 24.8129 1555.33 24.5898 1555.11 24.1437C1555.11 23.9206 1554.88 23.4744 1554.44 23.6975Z" fill="white"/>
<path opacity="0.82" d="M1556.44 12.5431C1556.44 11.6507 1555.55 10.9814 1554.66 10.9814C1553.76 10.9814 1553.09 11.8738 1553.09 12.7661C1553.09 13.6585 1553.99 14.3277 1554.88 14.3277C1555.77 14.3277 1556.44 13.4354 1556.44 12.5431Z" fill="white"/>
<path opacity="0.49" d="M1522.49 0.273091C1522.27 -1.06542 1521.15 -2.18085 1519.59 -1.95776C1518.25 -1.73468 1517.13 -0.619252 1517.36 0.942338C1517.58 2.28084 1518.7 3.39627 1520.26 3.17319C1521.6 2.72702 1522.72 1.6116 1522.49 0.273091Z" fill="white"/>
<path opacity="0.58" d="M1766.65 35.075C1766.87 36.1904 1767.77 37.0828 1769.11 37.0828C1770.22 36.8597 1771.12 35.9674 1771.12 34.6289C1770.89 33.5134 1770 32.6211 1768.66 32.6211C1767.54 32.8442 1766.65 33.9596 1766.65 35.075Z" fill="white"/>
<path opacity="0.74" d="M1775.8 23.2509C1775.58 22.1355 1774.69 21.2432 1773.35 21.2432C1772.23 21.4662 1771.34 22.3586 1771.34 23.6971C1771.56 24.8125 1772.45 25.7048 1773.79 25.7048C1775.13 25.4818 1776.03 24.5894 1775.8 23.2509Z" fill="white"/>
<path opacity="0.39" d="M1812.21 13.8814C1812.21 12.9891 1811.32 12.0967 1810.2 12.3198C1809.31 12.3198 1808.42 13.2122 1808.64 14.3276C1808.64 15.2199 1809.53 16.1123 1810.65 15.8892C1811.54 15.6661 1812.21 14.7737 1812.21 13.8814Z" fill="white"/>
<path opacity="0.65" d="M1792.78 5.85C1794.34 5.62692 1795.46 4.28841 1795.46 2.72681C1795.24 1.16522 1793.9 0.0498047 1792.33 0.0498047C1790.77 0.272889 1789.65 1.6114 1789.65 3.17299C1789.65 4.95767 1790.99 6.07309 1792.78 5.85Z" fill="white"/>
<path opacity="0.86" d="M1743.64 35.5206C1742.08 35.2975 1740.74 36.4129 1740.51 37.9745C1740.29 39.5361 1741.41 40.8746 1742.97 41.0977C1744.53 41.3208 1745.87 40.2054 1746.1 38.6438C1746.32 36.8591 1745.2 35.5206 1743.64 35.5206Z" fill="white"/>
<path opacity="0.7" d="M1712.59 28.828C1712.59 29.7204 1713.04 30.3896 1713.93 30.3896C1714.82 30.3896 1715.49 29.9434 1715.49 29.0511C1715.49 28.1588 1715.05 27.4895 1714.15 27.4895C1713.26 27.2664 1712.59 27.9357 1712.59 28.828Z" fill="white"/>
<path opacity="0.63" d="M1699.19 17.451C1699.19 18.3433 1699.86 19.2357 1700.75 19.2357C1701.64 19.2357 1702.54 18.5664 1702.54 17.6741C1702.54 16.7818 1701.87 15.8894 1700.97 15.8894C1700.3 15.6663 1699.41 16.3356 1699.19 17.451Z" fill="white"/>
<path opacity="0.43" d="M1725.99 4.73554C1725.99 4.06629 1725.55 3.62012 1725.1 3.62012C1724.43 3.62012 1723.98 4.06629 1723.98 4.51245C1723.98 5.18171 1724.43 5.62788 1724.87 5.62788C1725.55 5.85096 1725.99 5.4048 1725.99 4.73554Z" fill="white"/>
<path opacity="0.69" d="M1689.58 29.9431C1690.92 30.1662 1692.04 29.2739 1692.04 27.9353C1692.26 26.5968 1691.37 25.4814 1690.03 25.4814C1688.69 25.2583 1687.57 26.1507 1687.57 27.4892C1687.35 28.8277 1688.24 29.9431 1689.58 29.9431Z" fill="white"/>
<path opacity="0.79" d="M1646.91 20.7968C1648.25 21.0199 1649.37 19.9044 1649.59 18.5659C1649.82 17.2274 1648.7 16.112 1647.36 15.8889C1646.02 15.6658 1644.9 16.7813 1644.68 18.1198C1644.68 19.4583 1645.57 20.7968 1646.91 20.7968Z" fill="white"/>
<path opacity="0.9" d="M1650.49 8.30396C1651.16 8.30396 1651.83 7.85779 1652.05 7.18854C1652.05 6.51928 1651.6 5.85004 1650.93 5.62695C1650.26 5.62695 1649.59 6.07313 1649.37 6.74238C1649.37 7.41163 1649.82 8.08088 1650.49 8.30396Z" fill="white"/>
<path opacity="0.71" d="M1605.37 29.7197C1605.59 28.3812 1604.47 27.0427 1603.13 26.8196C1601.79 26.5965 1600.45 27.7119 1600.23 29.0504C1600 30.3889 1601.12 31.7274 1602.46 31.9505C1603.8 32.1736 1605.14 31.2813 1605.37 29.7197Z" fill="white"/>
<path opacity="0.73" d="M1622.12 18.7888C1622.12 18.3427 1621.9 17.8965 1621.45 17.8965C1621 17.8965 1620.55 18.1196 1620.55 18.5657C1620.55 19.0119 1620.78 19.4581 1621.23 19.4581C1621.67 19.4581 1622.12 19.235 1622.12 18.7888Z" fill="white"/>
<path opacity="0.73" d="M1620.56 10.089C1621.68 10.3121 1622.57 9.41973 1622.79 8.30431C1623.02 7.18888 1622.12 6.29656 1621.01 6.07348C1619.89 5.85039 1619 6.74273 1618.77 7.85815C1618.77 8.97357 1619.44 10.089 1620.56 10.089Z" fill="white"/>
</g>
<g opacity="0.2">
<path opacity="0.35" d="M1409.09 33.3561C1409.31 34.4715 1410.2 35.3638 1411.32 35.1408C1412.44 34.9177 1413.33 34.0253 1413.11 32.9099C1412.88 31.7945 1411.99 30.9021 1410.87 31.1252C1409.76 31.1252 1409.09 32.2407 1409.09 33.3561Z" fill="white"/>
<path opacity="0.67" d="M1379.82 21.9791C1380.27 21.9791 1380.49 21.5329 1380.49 21.3099C1380.49 20.8637 1380.04 20.6406 1379.82 20.6406C1379.37 20.6406 1379.15 21.0868 1379.15 21.3099C1379.15 21.756 1379.6 21.9791 1379.82 21.9791Z" fill="white"/>
<path opacity="0.89" d="M1422.93 13.0565C1423.6 13.0565 1424.05 12.3872 1424.05 11.718C1424.05 11.0487 1423.38 10.6025 1422.71 10.6025C1422.04 10.6025 1421.59 11.2718 1421.59 11.941C1421.81 12.8334 1422.26 13.2795 1422.93 13.0565Z" fill="white"/>
<path opacity="0.45" d="M1402.83 0.56397C1402.83 1.45631 1403.72 2.12555 1404.61 2.12555C1405.51 2.12555 1406.18 1.23322 1406.18 0.340881C1406.18 -0.551457 1405.29 -1.2207 1404.39 -1.2207C1403.27 -1.2207 1402.6 -0.328367 1402.83 0.56397Z" fill="white"/>
<path opacity="0.57" d="M984.436 34.9179C984.213 33.8025 983.319 32.9102 981.979 32.9102C980.862 33.1332 979.969 34.0256 979.969 35.3641C980.192 36.4795 981.086 37.3719 982.426 37.3719C983.766 37.1488 984.66 36.0333 984.436 34.9179Z" fill="white"/>
<path opacity="0.7" d="M955.627 22.203C955.403 20.6414 954.063 19.749 952.723 19.749C951.159 19.9721 950.266 21.3106 950.266 22.6491C950.489 24.2107 951.829 25.103 953.17 25.103C954.733 25.103 955.85 23.7646 955.627 22.203Z" fill="white"/>
<path opacity="0.85" d="M947.58 10.8251C947.357 9.48662 946.24 8.59428 945.123 8.81737C943.782 9.04045 942.889 10.1559 943.112 11.2713C943.336 12.6098 944.453 13.5021 945.569 13.2791C946.686 13.2791 947.58 12.1636 947.58 10.8251Z" fill="white"/>
<path opacity="0.85" d="M979.969 -0.552007C979.746 -1.66743 978.852 -2.55976 977.736 -2.33668C976.619 -2.1136 975.725 -1.22127 975.949 -0.10585C976.172 1.00957 977.065 1.90193 978.182 1.67884C979.299 1.67884 980.193 0.563414 979.969 -0.552007Z" fill="white"/>
<path opacity="0.46" d="M1334.47 30.2342C1334.7 31.5727 1335.81 32.465 1336.93 32.2419C1338.27 32.0188 1339.16 30.9034 1338.94 29.788C1338.72 28.4495 1337.6 27.5572 1336.48 27.7803C1335.14 27.7803 1334.25 28.8957 1334.47 30.2342Z" fill="white"/>
<path opacity="0.73" d="M1349.89 19.0796C1350.11 20.8643 1351.67 21.9797 1353.24 21.7567C1355.02 21.5336 1356.14 19.972 1355.92 18.4104C1355.69 16.6257 1354.13 15.5103 1352.57 15.7334C1351 15.7334 1349.89 17.2949 1349.89 19.0796Z" fill="white"/>
<path opacity="0.35" d="M1355.25 7.03267C1355.47 7.03267 1355.92 6.80957 1355.69 6.3634C1355.69 6.14032 1355.47 5.69416 1355.02 5.91725C1354.8 5.91725 1354.35 6.14032 1354.58 6.58649C1354.58 6.80958 1355.02 7.03267 1355.25 7.03267Z" fill="white"/>
<path opacity="0.56" d="M1024.87 29.5645C1024.43 29.5645 1023.98 30.0106 1023.98 30.6799C1023.98 31.126 1024.43 31.5722 1025.1 31.5722C1025.55 31.5722 1025.99 31.126 1025.99 30.4568C1025.99 30.0106 1025.32 29.5645 1024.87 29.5645Z" fill="white"/>
<path opacity="0.39" d="M999.63 17.2946C999.63 16.6253 998.96 15.9561 998.067 15.9561C997.397 15.9561 996.727 16.6253 996.727 17.5176C996.727 18.1869 997.397 18.8562 998.29 18.8562C999.184 18.8562 999.63 18.1869 999.63 17.2946Z" fill="white"/>
<path opacity="0.74" d="M1023.98 5.91693C1023.75 4.57842 1022.64 3.68608 1021.52 3.90916C1020.18 4.13225 1019.29 5.24766 1019.51 6.36308C1019.73 7.70159 1020.85 8.59393 1021.97 8.37085C1023.08 8.37085 1024.2 7.25543 1023.98 5.91693Z" fill="white"/>
<path opacity="0.69" d="M1270.81 23.7637C1270.14 23.7637 1269.69 24.4329 1269.92 24.8791C1269.92 25.5483 1270.59 25.9945 1271.04 25.7714C1271.71 25.7714 1272.15 25.1022 1271.93 24.656C1271.93 24.2098 1271.26 23.7637 1270.81 23.7637Z" fill="white"/>
<path opacity="0.69" d="M1262.33 13.2783C1261.66 13.2783 1261.43 13.9476 1261.43 14.3937C1261.43 15.063 1262.1 15.5092 1262.55 15.2861C1263.22 15.2861 1263.67 14.6168 1263.45 14.1707C1263.45 13.7245 1262.77 13.2783 1262.33 13.2783Z" fill="white"/>
<path opacity="0.5" d="M1256.74 6.36354C1258.52 6.14046 1259.64 4.57888 1259.64 3.01729C1259.42 1.23261 1257.85 0.117188 1256.29 0.117188C1254.5 0.340272 1253.39 1.90186 1253.39 3.68653C1253.39 5.24812 1254.95 6.58663 1256.74 6.36354Z" fill="white"/>
<path opacity="0.64" d="M1225.69 31.126C1225.91 29.7874 1224.8 28.4489 1223.46 28.2258C1222.12 28.0027 1220.78 29.1182 1220.55 30.4567C1220.33 31.7952 1221.45 33.1337 1222.79 33.3568C1224.35 33.803 1225.47 32.6875 1225.69 31.126Z" fill="white"/>
<path opacity="0.49" d="M1229.26 19.7491C1229.26 20.1953 1229.49 20.6415 1229.93 20.6415C1230.38 20.6415 1230.83 20.4184 1230.83 19.9722C1230.83 19.526 1230.6 19.0798 1230.16 19.0798C1229.71 18.8568 1229.49 19.3029 1229.26 19.7491Z" fill="white"/>
<path opacity="0.31" d="M1210.95 8.59468C1210.72 9.93318 1211.84 11.0486 1212.96 11.0486C1214.3 11.2717 1215.41 10.1563 1215.41 9.04086C1215.64 7.70235 1214.52 6.58691 1213.4 6.58691C1212.06 6.58691 1210.95 7.47926 1210.95 8.59468Z" fill="white"/>
<path opacity="0.64" d="M1173.42 29.7878C1173.87 29.7878 1174.09 29.5647 1174.09 29.1185C1174.09 28.6723 1173.87 28.4492 1173.42 28.4492C1172.97 28.4492 1172.75 28.6723 1172.75 29.1185C1172.75 29.3416 1172.97 29.5647 1173.42 29.7878Z" fill="white"/>
<path opacity="0.77" d="M1131.64 19.9713C1131.64 19.3021 1131.2 18.8559 1130.53 18.6328C1129.86 18.6328 1129.41 19.079 1129.19 19.7482C1129.19 20.4175 1129.63 20.8636 1130.3 21.0867C1130.97 21.0867 1131.42 20.6406 1131.64 19.9713Z" fill="white"/>
<path opacity="0.71" d="M1150.41 8.37159C1150.41 7.47925 1149.74 6.58691 1148.85 6.58691C1147.95 6.58691 1147.06 7.25618 1147.06 8.14852C1147.06 9.04086 1147.73 9.93319 1148.62 9.93319C1149.52 9.93319 1150.41 9.26392 1150.41 8.37159Z" fill="white"/>
<path opacity="0.47" d="M1089.88 27.333C1089.43 27.333 1088.98 27.5561 1088.76 28.2253C1088.76 28.6715 1088.98 29.1177 1089.65 29.3408C1090.1 29.3408 1090.55 29.1177 1090.77 28.4484C1090.77 28.0022 1090.32 27.333 1089.88 27.333Z" fill="white"/>
<path opacity="0.46" d="M1099.48 18.187C1099.48 17.2947 1099.04 16.6254 1098.14 16.4023C1097.25 16.4023 1096.58 16.8485 1096.36 17.7408C1096.36 18.6332 1096.8 19.3024 1097.7 19.5255C1098.81 19.7486 1099.48 19.0794 1099.48 18.187Z" fill="white"/>
<path opacity="0.69" d="M1072 7.25586C1071.56 7.25586 1070.89 7.47894 1070.89 8.1482C1070.89 8.59436 1071.11 9.2636 1071.78 9.2636C1072.23 9.2636 1072.9 8.81743 1072.9 8.37126C1072.9 7.9251 1072.45 7.47894 1072 7.25586Z" fill="white"/>
</g>
<g opacity="0.2">
<path opacity="0.67" d="M879.354 35.8619C879.801 35.8619 880.025 35.4157 880.025 35.1927C880.025 34.7465 879.578 34.5234 879.354 34.5234C878.907 34.5234 878.684 34.9696 878.684 35.1927C878.684 35.6388 879.131 35.8619 879.354 35.8619Z" fill="white"/>
<path opacity="0.89" d="M922.465 26.9393C923.135 26.9393 923.582 26.27 923.582 25.6008C923.582 24.9315 922.912 24.4854 922.242 24.4854C921.572 24.4854 921.125 25.1546 921.125 25.8238C921.348 26.7162 921.795 27.1624 922.465 26.9393Z" fill="white"/>
<path opacity="0.45" d="M902.363 14.4468C902.363 15.3391 903.257 16.0084 904.15 16.0084C905.044 16.0084 905.714 15.116 905.714 14.2237C905.714 13.3314 904.82 12.6621 903.927 12.6621C902.81 12.6621 902.14 13.5544 902.363 14.4468Z" fill="white"/>
<path opacity="0.9" d="M918.448 3.73808C918.672 5.07659 919.789 5.96893 920.905 5.74585C922.246 5.52276 923.139 4.40735 922.916 3.29193C922.692 1.95342 921.576 1.06108 920.459 1.28416C919.118 1.28416 918.225 2.39958 918.448 3.73808Z" fill="white"/>
<path opacity="0.7" d="M455.162 36.0858C454.938 34.5242 453.598 33.6318 452.258 33.6318C450.694 33.8549 449.801 35.1934 449.801 36.5319C450.024 38.0935 451.364 38.9859 452.705 38.9859C454.268 38.9859 455.385 37.6474 455.162 36.0858Z" fill="white"/>
<path opacity="0.85" d="M447.115 24.7079C446.892 23.3694 445.775 22.4771 444.658 22.7002C443.318 22.9233 442.424 24.0387 442.647 25.1541C442.871 26.4926 443.988 27.3849 445.105 27.1619C446.222 27.1619 447.115 26.0464 447.115 24.7079Z" fill="white"/>
<path opacity="0.85" d="M479.504 13.3318C479.281 12.2164 478.388 11.324 477.271 11.5471C476.154 11.7702 475.26 12.6625 475.484 13.7779C475.707 14.8934 476.601 15.7857 477.717 15.5626C478.834 15.5626 479.728 14.4472 479.504 13.3318Z" fill="white"/>
<path opacity="0.35" d="M446.003 1.06152C445.556 1.06152 445.332 1.50769 445.332 1.73077C445.332 1.95385 445.779 2.40004 446.003 2.40004C446.45 2.40004 446.673 1.95385 446.673 1.73077C446.673 1.2846 446.45 1.06152 446.003 1.06152Z" fill="white"/>
<path opacity="0.73" d="M849.422 32.9634C849.645 34.7481 851.209 35.8635 852.773 35.6404C854.56 35.4174 855.676 33.8558 855.453 32.2942C855.23 30.5095 853.666 29.3941 852.102 29.6172C850.539 29.6172 849.422 31.1787 849.422 32.9634Z" fill="white"/>
<path opacity="0.35" d="M854.782 20.9165C855.005 20.9165 855.452 20.6934 855.228 20.2472C855.228 20.0241 855.005 19.578 854.558 19.801C854.335 19.801 853.888 20.0241 854.112 20.4703C854.112 20.6934 854.558 20.9165 854.782 20.9165Z" fill="white"/>
<path opacity="0.57" d="M853.218 8.86963C853.218 9.76197 854.112 10.4312 855.005 10.4312C855.899 10.4312 856.569 9.53888 856.569 8.64654C856.569 7.75421 855.675 7.08496 854.782 7.08496C853.888 7.08496 852.995 7.9773 853.218 8.86963Z" fill="white"/>
<path opacity="0.39" d="M499.166 31.1774C499.166 30.5081 498.496 29.8389 497.602 29.8389C496.932 29.8389 496.262 30.5081 496.262 31.4005C496.262 32.0697 496.932 32.739 497.825 32.739C498.719 32.739 499.166 32.0697 499.166 31.1774Z" fill="white"/>
<path opacity="0.74" d="M523.514 19.8007C523.29 18.4622 522.173 17.5699 521.056 17.793C519.716 18.016 518.823 19.1315 519.046 20.2469C519.269 21.5854 520.386 22.4777 521.503 22.2546C522.62 22.2546 523.737 21.1392 523.514 19.8007Z" fill="white"/>
<path opacity="0.66" d="M540.716 8.42307C540.492 6.63839 538.929 5.52297 537.365 5.74606C535.578 5.96914 534.461 7.53073 534.685 9.09232C534.908 10.877 536.472 11.9924 538.035 11.7693C539.599 11.7693 540.939 10.2077 540.716 8.42307Z" fill="white"/>
<path opacity="0.69" d="M761.863 27.1621C761.192 27.1621 760.969 27.8314 760.969 28.2775C760.969 28.9468 761.639 29.393 762.086 29.1699C762.757 29.1699 763.204 28.5006 762.98 28.0544C762.98 27.6083 762.31 27.1621 761.863 27.1621Z" fill="white"/>
<path opacity="0.5" d="M756.273 20.2464C758.06 20.0233 759.176 18.4617 759.176 16.9001C758.953 15.1154 757.389 14 755.826 14C754.039 14.2231 752.922 15.7847 752.922 17.5693C752.922 19.1309 754.486 20.4694 756.273 20.2464Z" fill="white"/>
<path opacity="0.58" d="M751.809 7.30841C752.032 8.42383 752.925 9.31618 754.266 9.31618C755.383 9.09309 756.276 8.20076 756.276 6.86225C756.053 5.74683 755.159 4.85449 753.819 4.85449C752.702 5.07758 751.809 6.19299 751.809 7.30841Z" fill="white"/>
<path opacity="0.49" d="M728.797 33.6319C728.797 34.0781 729.02 34.5243 729.467 34.5243C729.914 34.5243 730.361 34.3012 730.361 33.855C730.361 33.4088 730.138 32.9627 729.691 32.9627C729.244 32.7396 729.02 33.1858 728.797 33.6319Z" fill="white"/>
<path opacity="0.31" d="M710.482 22.4775C710.258 23.816 711.375 24.9314 712.492 24.9314C713.833 25.1545 714.949 24.0391 714.949 22.9237C715.173 21.5852 714.056 20.4697 712.939 20.4697C711.599 20.4697 710.482 21.3621 710.482 22.4775Z" fill="white"/>
<path opacity="0.86" d="M728.8 7.75401C727.237 7.53093 725.896 8.64634 725.673 10.2079C725.45 11.7695 726.567 13.108 728.13 13.3311C729.694 13.5542 731.034 12.4388 731.257 10.8772C731.481 9.09252 730.364 7.75401 728.8 7.75401Z" fill="white"/>
<path opacity="0.7" d="M697.75 1.06142C697.75 1.95376 698.197 2.623 699.09 2.623C699.984 2.623 700.654 2.17685 700.654 1.28451C700.654 0.392171 700.207 -0.277075 699.314 -0.277075C698.42 -0.500159 697.75 0.169082 697.75 1.06142Z" fill="white"/>
<path opacity="0.77" d="M631.18 33.8551C631.18 33.1858 630.733 32.7397 630.063 32.5166C629.393 32.5166 628.946 32.9628 628.723 33.632C628.723 34.3013 629.169 34.7474 629.84 34.9705C630.51 34.9705 630.956 34.5243 631.18 33.8551Z" fill="white"/>
<path opacity="0.71" d="M649.944 22.2544C649.944 21.3621 649.274 20.4697 648.381 20.4697C647.487 20.4697 646.594 21.139 646.594 22.0313C646.594 22.9237 647.264 23.816 648.157 23.816C649.051 23.816 649.944 23.1467 649.944 22.2544Z" fill="white"/>
<path opacity="0.81" d="M633.865 11.5467C634.088 10.2082 633.195 9.09276 631.855 9.09276C630.514 8.86967 629.397 9.76201 629.397 11.1005C629.174 12.439 630.068 13.5545 631.408 13.5545C632.525 13.7775 633.642 12.8852 633.865 11.5467Z" fill="white"/>
<path opacity="0.69" d="M674.74 2.17749C676.08 2.40057 677.197 1.50823 677.197 0.169725C677.42 -1.16878 676.527 -2.2842 675.187 -2.2842C673.846 -2.50728 672.73 -1.61494 672.73 -0.276433C672.506 1.06207 673.4 2.17749 674.74 2.17749Z" fill="white"/>
<path opacity="0.46" d="M599.018 32.0708C599.018 31.1785 598.571 30.5092 597.678 30.2861C596.784 30.2861 596.114 30.7323 595.891 31.6246C595.891 32.517 596.337 33.1862 597.231 33.4093C598.348 33.6324 599.018 32.9631 599.018 32.0708Z" fill="white"/>
<path opacity="0.69" d="M571.539 21.1387C571.092 21.1387 570.422 21.3618 570.422 22.031C570.422 22.4772 570.645 23.1464 571.316 23.1464C571.763 23.1464 572.434 22.7002 572.434 22.2541C572.434 21.8079 571.987 21.3618 571.539 21.1387Z" fill="white"/>
<path opacity="0.34" d="M612.638 8.86912C611.298 8.64604 610.181 9.53838 610.181 10.8769C609.958 12.2154 611.075 13.3308 612.191 13.3308C613.532 13.5539 614.649 12.4385 614.649 11.323C614.872 9.98454 613.979 8.86912 612.638 8.86912Z" fill="white"/>
<path opacity="0.71" d="M590.526 1.95406C590.749 0.615551 589.632 -0.722958 588.292 -0.946042C586.952 -1.16913 585.611 -0.0536963 585.388 1.28481C585.165 2.62332 586.281 3.96182 587.622 4.18491C588.962 4.40799 590.302 3.51565 590.526 1.95406Z" fill="white"/>
</g>
<g opacity="0.2">
<path opacity="0.62" d="M419.536 40.7545C420.876 40.5315 421.77 39.416 421.77 38.0775C421.546 36.739 420.429 35.8467 419.089 35.8467C417.749 36.0698 416.855 37.1852 416.855 38.5237C417.079 39.8622 418.196 40.9776 419.536 40.7545Z" fill="white"/>
<path opacity="0.44" d="M416.186 28.2618C416.856 28.2618 417.526 27.5925 417.302 26.7002C417.302 26.0309 416.632 25.3617 415.739 25.5848C415.069 25.5848 414.399 26.254 414.622 27.1464C414.622 27.8156 415.292 28.2618 416.186 28.2618Z" fill="white"/>
<path opacity="0.57" d="M421.989 17.7771C422.883 17.7771 423.33 16.8847 423.33 16.2155C423.33 15.3231 422.436 14.877 421.766 14.877C420.873 14.877 420.426 15.7693 420.426 16.4385C420.649 17.3309 421.319 18.0001 421.989 17.7771Z" fill="white"/>
<path opacity="0.52" d="M405.909 4.83851C406.133 5.95393 407.026 6.84627 408.143 6.62318C409.26 6.4001 410.154 5.50775 409.93 4.39233C409.707 3.27691 408.813 2.38457 407.696 2.60766C406.58 2.60766 405.686 3.72309 405.909 4.83851Z" fill="white"/>
<path opacity="0.4" d="M354.753 30.9391C354.977 32.0545 355.87 32.9469 356.987 32.7238C358.104 32.5007 358.997 31.6083 358.774 30.4929C358.551 29.3775 357.657 28.4852 356.54 28.7082C355.423 28.7082 354.53 29.8237 354.753 30.9391Z" fill="white"/>
<path opacity="0.71" d="M357.66 20.0087C357.66 21.1241 358.777 21.7934 359.671 21.7934C360.787 21.7934 361.458 20.678 361.458 19.7856C361.458 18.6702 360.341 18.001 359.447 18.001C358.33 18.2241 357.66 19.1164 357.66 20.0087Z" fill="white"/>
<path opacity="0.57" d="M338.45 5.9541C337.333 6.17719 336.44 7.06951 336.663 8.18493C336.887 9.30035 337.78 10.1927 338.897 9.96961C340.014 9.74652 340.908 8.8542 340.684 7.73877C340.461 6.62335 339.567 5.9541 338.45 5.9541Z" fill="white"/>
<path opacity="0.49" d="M7.17803 28.0387C6.95466 26.7002 5.83776 25.5848 4.27411 25.8079C2.93384 26.0309 1.81694 27.1464 2.04032 28.708C2.2637 30.0465 3.38059 31.1619 4.94424 30.9388C6.28452 30.4926 7.40141 29.3772 7.17803 28.0387Z" fill="white"/>
<path opacity="0.79" d="M0.25472 17.5537C0.0316594 17.5537 -0.191406 17.7768 -0.191406 17.9999C-0.191406 18.223 0.0316594 18.446 0.25472 18.446C0.477781 18.446 0.700841 18.223 0.700841 17.9999C0.700841 17.7768 0.477781 17.5537 0.25472 17.5537Z" fill="white"/>
<path opacity="0.9" d="M43.8092 6.62377C43.5858 5.50835 42.6923 4.61602 41.5754 4.8391C40.4585 5.06219 39.565 5.95451 39.7884 7.06993C40.0117 8.18535 40.9053 9.07769 42.0222 8.85461C43.139 8.85461 44.0326 7.7392 43.8092 6.62377Z" fill="white"/>
<path opacity="0.65" d="M277.463 33.6156C279.027 33.3925 280.144 32.054 280.144 30.4924C279.92 28.9308 278.58 27.8154 277.017 27.8154C275.453 28.0385 274.336 29.377 274.336 30.9386C274.336 32.7233 275.676 33.8387 277.463 33.6156Z" fill="white"/>
<path opacity="0.51" d="M271.657 18.446C271.433 17.3306 270.54 16.4383 269.423 16.6614C268.306 16.8845 267.413 17.7768 267.636 18.8922C267.859 20.0076 268.753 20.9 269.87 20.6769C270.987 20.6769 271.88 19.5615 271.657 18.446Z" fill="white"/>
<path opacity="0.52" d="M289.083 7.06909C288.859 5.95366 287.966 5.06133 286.849 5.28441C285.732 5.5075 284.838 6.39984 285.062 7.51527C285.285 8.63069 286.179 9.52302 287.296 9.29994C288.412 9.07685 289.306 8.18451 289.083 7.06909Z" fill="white"/>
<path opacity="0.43" d="M210.676 32.5012C210.676 31.8319 210.229 31.3857 209.782 31.3857C209.111 31.3857 208.664 31.8319 208.664 32.2781C208.664 32.9473 209.111 33.3935 209.558 33.3935C210.229 33.6166 210.676 33.1704 210.676 32.5012Z" fill="white"/>
<path opacity="0.51" d="M219.168 22.0158C219.168 21.3465 218.721 20.9004 218.274 20.9004C217.603 20.9004 217.156 21.3466 217.156 21.7927C217.156 22.462 217.603 22.9081 218.05 22.9081C218.721 23.1312 219.168 22.685 219.168 22.0158Z" fill="white"/>
<path opacity="0.53" d="M224.305 7.73819C222.518 7.51511 220.954 8.85362 220.954 10.6383C220.731 12.423 222.071 13.9846 223.858 14.2076C225.645 14.4307 227.209 13.0922 227.209 11.3075C227.432 9.52286 226.092 7.96128 224.305 7.73819Z" fill="white"/>
<path opacity="0.75" d="M228.099 1.0457C228.323 -0.0697198 227.429 -1.18513 226.089 -1.40822C224.972 -1.6313 223.855 -0.738983 223.632 0.599523C223.408 1.71495 224.302 2.83038 225.642 3.05347C226.983 3.05347 228.099 2.16112 228.099 1.0457Z" fill="white"/>
<path opacity="0.9" d="M135.175 36.0696C135.846 36.0696 136.516 35.6234 136.739 34.9542C136.739 34.2849 136.292 33.6157 135.622 33.3926C134.952 33.3926 134.282 33.8388 134.059 34.508C134.059 35.1773 134.505 35.8465 135.175 36.0696Z" fill="white"/>
<path opacity="0.89" d="M128.027 24.0231C128.027 24.9154 128.474 25.5846 129.368 25.5846C130.261 25.5846 130.931 25.1385 130.931 24.2462C130.931 23.3538 130.485 22.6846 129.591 22.6846C128.697 22.6846 128.027 23.3538 128.027 24.0231Z" fill="white"/>
<path opacity="0.73" d="M145.45 12.6461C145.673 11.5307 144.78 10.4153 143.663 10.4153C142.546 10.1922 141.429 11.0845 141.429 12.1999C141.206 13.3154 142.099 14.4308 143.216 14.4308C144.333 14.4308 145.226 13.7615 145.45 12.6461Z" fill="white"/>
<path opacity="0.87" d="M165.33 0.153814C165.33 -0.738524 164.884 -1.40778 163.99 -1.63086C163.097 -1.63086 162.427 -1.1847 162.203 -0.292365C162.203 0.599972 162.65 1.26922 163.543 1.49231C164.437 1.71539 165.33 1.04615 165.33 0.153814Z" fill="white"/>
<path opacity="0.73" d="M105.244 37.8546C106.361 38.0777 107.254 37.1854 107.478 36.0699C107.701 34.9545 106.808 34.0622 105.691 33.8391C104.574 33.616 103.68 34.5084 103.457 35.6238C103.457 36.7392 104.127 37.8546 105.244 37.8546Z" fill="white"/>
<path opacity="0.7" d="M100.547 24.2467C100.547 25.1391 100.994 25.8083 101.887 25.8083C102.781 25.8083 103.451 25.3621 103.451 24.4698C103.451 23.5775 103.004 22.9082 102.111 22.9082C101.217 22.9082 100.547 23.5775 100.547 24.2467Z" fill="white"/>
<path opacity="0.83" d="M113.06 15.3234C114.847 15.5465 116.411 14.208 116.411 12.4233C116.634 10.6387 115.294 9.07706 113.507 9.07706C111.72 8.85397 110.156 10.1925 110.156 11.9772C110.156 13.7618 111.273 15.1004 113.06 15.3234Z" fill="white"/>
<path opacity="0.79" d="M88.7096 -0.292969C88.2626 -0.292969 88.0391 -0.0698691 88.0391 0.3763C88.0391 0.822468 88.2626 1.04555 88.7096 1.04555C89.1567 1.04555 89.3802 0.822468 89.3802 0.3763C89.1567 0.153215 88.9331 -0.292969 88.7096 -0.292969Z" fill="white"/>
</g>
</g>
<defs>
<clipPath id="clip0_10603_630552">
<rect width="1920" height="36" fill="white"/>
</clipPath>
</defs>
</svg>
